<svg width="642" height="314" viewBox="0 0 642 314" fill="none" xmlns="http://www.w3.org/2000/svg">
<g filter="url(#filter0_d_831_5699)">
<rect x="70" y="45.0012" width="502.79" height="175.674" rx="30.2886" fill="white"/>
<g clip-path="url(#clip0_831_5699)">
<path d="M196.681 115.781H135.931C134.533 115.781 133.399 116.915 133.399 118.312V153.75C133.399 155.148 134.533 156.281 135.931 156.281H196.681C198.079 156.281 199.212 155.148 199.212 153.75V118.312C199.212 116.915 198.079 115.781 196.681 115.781Z" stroke="#4D4D4D" stroke-width="5" stroke-linecap="round" stroke-linejoin="round"/>
<path d="M133.399 130.969H199.212" stroke="#4D4D4D" stroke-width="5" stroke-linecap="round" stroke-linejoin="round"/>
<path d="M148.587 125.906V136.031" stroke="#4D4D4D" stroke-width="5" stroke-linecap="round" stroke-linejoin="round"/>
<path d="M184.024 125.906V136.031" stroke="#4D4D4D" stroke-width="5" stroke-linecap="round" stroke-linejoin="round"/>
<path d="M178.962 115.781V110.719C178.962 109.376 178.428 108.088 177.479 107.139C176.53 106.19 175.242 105.656 173.899 105.656H158.712C157.369 105.656 156.081 106.19 155.132 107.139C154.183 108.088 153.649 109.376 153.649 110.719V115.781" stroke="#4D4D4D" stroke-width="5" stroke-linecap="round" stroke-linejoin="round"/>
</g>
<path d="M275.909 115.603V151H271.254V124.605L259.489 151H256.215L244.399 124.554V151H239.744V115.603H244.757L257.852 144.862L270.947 115.603H275.909ZM307.947 122.969L291.067 164.197H286.258L291.783 150.693L280.478 122.969H285.645L294.443 145.68L303.139 122.969H307.947ZM354.295 151H349.64L330.918 122.61V151H326.264V115.296H330.918L349.64 143.634V115.296H354.295V151ZM374.455 151.46C371.83 151.46 369.442 150.864 367.294 149.67C365.18 148.476 363.509 146.788 362.281 144.606C361.088 142.389 360.491 139.832 360.491 136.933C360.491 134.069 361.105 131.545 362.332 129.363C363.594 127.146 365.299 125.458 367.448 124.299C369.596 123.105 372 122.508 374.66 122.508C377.32 122.508 379.724 123.105 381.872 124.299C384.021 125.458 385.709 127.129 386.937 129.311C388.198 131.494 388.829 134.034 388.829 136.933C388.829 139.832 388.181 142.389 386.885 144.606C385.624 146.788 383.902 148.476 381.719 149.67C379.537 150.864 377.115 151.46 374.455 151.46ZM374.455 147.368C376.126 147.368 377.695 146.976 379.161 146.192C380.628 145.407 381.804 144.231 382.691 142.662C383.612 141.094 384.072 139.184 384.072 136.933C384.072 134.682 383.629 132.773 382.742 131.204C381.855 129.635 380.696 128.476 379.264 127.726C377.831 126.941 376.28 126.549 374.609 126.549C372.904 126.549 371.335 126.941 369.903 127.726C368.505 128.476 367.379 129.635 366.527 131.204C365.674 132.773 365.248 134.682 365.248 136.933C365.248 139.218 365.657 141.145 366.476 142.713C367.328 144.282 368.454 145.459 369.852 146.243C371.25 146.993 372.784 147.368 374.455 147.368ZM418.786 125.782C418.786 128.749 417.763 131.221 415.717 133.199C413.705 135.143 410.619 136.115 406.459 136.115H399.604V151H394.949V115.347H406.459C410.483 115.347 413.535 116.319 415.615 118.263C417.729 120.206 418.786 122.713 418.786 125.782ZM406.459 132.278C409.05 132.278 410.96 131.716 412.188 130.59C413.415 129.465 414.029 127.862 414.029 125.782C414.029 121.383 411.506 119.183 406.459 119.183H399.604V132.278H406.459ZM436.797 151.46C434.171 151.46 431.784 150.864 429.636 149.67C427.522 148.476 425.851 146.788 424.623 144.606C423.429 142.389 422.833 139.832 422.833 136.933C422.833 134.069 423.446 131.545 424.674 129.363C425.936 127.146 427.641 125.458 429.789 124.299C431.938 123.105 434.342 122.508 437.002 122.508C439.662 122.508 442.066 123.105 444.214 124.299C446.363 125.458 448.051 127.129 449.278 129.311C450.54 131.494 451.171 134.034 451.171 136.933C451.171 139.832 450.523 142.389 449.227 144.606C447.965 146.788 446.243 148.476 444.061 149.67C441.878 150.864 439.457 151.46 436.797 151.46ZM436.797 147.368C438.468 147.368 440.037 146.976 441.503 146.192C442.97 145.407 444.146 144.231 445.033 142.662C445.953 141.094 446.414 139.184 446.414 136.933C446.414 134.682 445.971 132.773 445.084 131.204C444.197 129.635 443.038 128.476 441.606 127.726C440.173 126.941 438.622 126.549 436.951 126.549C435.246 126.549 433.677 126.941 432.245 127.726C430.847 128.476 429.721 129.635 428.869 131.204C428.016 132.773 427.59 134.682 427.59 136.933C427.59 139.218 427.999 141.145 428.817 142.713C429.67 144.282 430.795 145.459 432.194 146.243C433.592 146.993 435.126 147.368 436.797 147.368ZM461.946 127.521C462.765 125.918 463.924 124.674 465.425 123.787C466.959 122.9 468.818 122.457 471 122.457V127.265H469.772C464.555 127.265 461.946 130.096 461.946 135.757V151H457.291V122.969H461.946V127.521ZM482.051 126.805V143.327C482.051 144.691 482.341 145.663 482.921 146.243C483.501 146.788 484.507 147.061 485.939 147.061H489.366V151H485.172C482.58 151 480.636 150.403 479.34 149.21C478.044 148.016 477.397 146.055 477.397 143.327V126.805H473.765V122.969H477.397V115.91H482.051V122.969H489.366V126.805H482.051ZM504.93 151.46C502.781 151.46 500.855 151.102 499.149 150.386C497.444 149.636 496.097 148.613 495.108 147.317C494.119 145.987 493.574 144.47 493.472 142.764H498.28C498.416 144.163 499.064 145.305 500.224 146.192C501.417 147.078 502.969 147.522 504.879 147.522C506.652 147.522 508.05 147.129 509.073 146.345C510.096 145.561 510.608 144.572 510.608 143.378C510.608 142.151 510.062 141.247 508.971 140.667C507.879 140.053 506.191 139.457 503.907 138.877C501.826 138.331 500.121 137.786 498.791 137.24C497.496 136.66 496.37 135.825 495.415 134.734C494.495 133.608 494.034 132.142 494.034 130.334C494.034 128.902 494.46 127.589 495.313 126.396C496.166 125.202 497.376 124.264 498.945 123.582C500.514 122.866 502.304 122.508 504.316 122.508C507.419 122.508 509.926 123.293 511.835 124.861C513.745 126.43 514.768 128.578 514.904 131.306H510.25C510.147 129.84 509.55 128.664 508.459 127.777C507.402 126.89 505.97 126.447 504.162 126.447C502.491 126.447 501.161 126.805 500.173 127.521C499.184 128.237 498.689 129.175 498.689 130.334C498.689 131.255 498.979 132.023 499.559 132.636C500.173 133.216 500.923 133.693 501.809 134.069C502.73 134.41 503.992 134.802 505.595 135.245C507.607 135.791 509.244 136.336 510.505 136.882C511.767 137.393 512.841 138.178 513.728 139.235C514.649 140.292 515.126 141.673 515.16 143.378C515.16 144.913 514.734 146.294 513.881 147.522C513.029 148.749 511.818 149.721 510.25 150.437C508.715 151.119 506.942 151.46 504.93 151.46Z" fill="#4D4D4D"/>
</g>
<defs>
<filter id="filter0_d_831_5699" x="0.942055" y="0.172913" width="640.906" height="313.791" filterUnits="userSpaceOnUse" color-interpolation-filters="sRGB">
<feFlood flood-opacity="0" result="BackgroundImageFix"/>
<feColorMatrix in="SourceAlpha" type="matrix" values="0 0 0 0 0 0 0 0 0 0 0 0 0 0 0 0 0 0 127 0" result="hardAlpha"/>
<feOffset dy="24.2309"/>
<feGaussianBlur stdDeviation="34.529"/>
<feComposite in2="hardAlpha" operator="out"/>
<feColorMatrix type="matrix" values="0 0 0 0 0 0 0 0 0 0 0 0 0 0 0 0 0 0 0.25 0"/>
<feBlend mode="normal" in2="BackgroundImageFix" result="effect1_dropShadow_831_5699"/>
<feBlend mode="normal" in="SourceGraphic" in2="effect1_dropShadow_831_5699" result="shape"/>
</filter>
<clipPath id="clip0_831_5699">
<rect width="81" height="81" fill="white" transform="translate(125.806 93)"/>
</clipPath>
</defs>
</svg>
