<svg width="1136" height="695" viewBox="0 0 1136 695" fill="none" xmlns="http://www.w3.org/2000/svg">
<g filter="url(#filter0_d_868_553)">
<rect x="78" y="119.861" width="980" height="476.389" rx="23.918" fill="white"/>
<rect x="215.611" y="346.19" width="709.756" height="75.9293" rx="10.459" fill="#EFEFEF" stroke="#F05E3E" stroke-width="3"/>
<path d="M267.383 375.626C269.265 375.626 270.907 375.984 272.31 376.702C273.713 377.404 274.79 378.4 275.539 379.692C276.304 380.967 276.687 382.442 276.687 384.116C276.687 385.472 276.448 386.732 275.97 387.896C275.507 389.06 274.814 389.992 273.889 390.694C272.98 391.38 271.896 391.722 270.636 391.722C269.791 391.722 269.089 391.555 268.531 391.22C267.989 390.885 267.622 390.415 267.431 389.809C266.984 390.431 266.41 390.917 265.709 391.268C265.007 391.603 264.242 391.77 263.413 391.77C262.233 391.77 261.3 391.419 260.614 390.718C259.945 390 259.61 389.028 259.61 387.8C259.61 386.636 259.849 385.544 260.327 384.523C260.806 383.487 261.467 382.657 262.312 382.036C263.158 381.414 264.106 381.103 265.159 381.103C266.498 381.103 267.407 381.581 267.885 382.538L268.101 381.27H271.401L270.349 387.274C270.301 387.561 270.277 387.816 270.277 388.039C270.277 388.741 270.588 389.091 271.21 389.091C271.975 389.091 272.557 388.605 272.956 387.632C273.37 386.644 273.578 385.512 273.578 384.236C273.578 382.402 272.996 380.967 271.832 379.931C270.684 378.894 269.065 378.376 266.976 378.376C265.191 378.376 263.564 378.807 262.097 379.668C260.646 380.529 259.506 381.709 258.677 383.208C257.848 384.691 257.433 386.325 257.433 388.111C257.433 390.04 257.991 391.539 259.107 392.607C260.24 393.676 261.818 394.21 263.843 394.21C265.422 394.21 266.833 393.923 268.077 393.349L268.722 395.956C267.16 396.642 265.406 396.984 263.46 396.984C261.643 396.984 260.04 396.634 258.653 395.932C257.282 395.23 256.221 394.234 255.472 392.942C254.722 391.651 254.348 390.144 254.348 388.422C254.348 386.014 254.914 383.837 256.046 381.892C257.178 379.931 258.733 378.4 260.71 377.3C262.703 376.184 264.927 375.626 267.383 375.626ZM264.752 388.828C265.199 388.828 265.613 388.693 265.996 388.422C266.394 388.151 266.705 387.792 266.929 387.345C267.168 386.883 267.287 386.389 267.287 385.862C267.287 385.32 267.136 384.882 266.833 384.547C266.53 384.196 266.115 384.021 265.589 384.021C264.888 384.021 264.306 384.324 263.843 384.93C263.381 385.536 263.15 386.253 263.15 387.082C263.15 387.609 263.285 388.031 263.556 388.35C263.827 388.669 264.226 388.828 264.752 388.828Z" fill="#F05E3E"/>
<path d="M279.32 384.954C279.32 383.63 279.591 382.458 280.133 381.438C280.691 380.417 281.441 379.628 282.381 379.07C283.338 378.496 284.391 378.209 285.539 378.209C286.575 378.209 287.476 378.416 288.241 378.831C289.023 379.229 289.645 379.732 290.107 380.337V378.424H292.858V391.603H290.107V389.642C289.645 390.263 289.015 390.782 288.217 391.196C287.42 391.611 286.511 391.818 285.491 391.818C284.359 391.818 283.322 391.531 282.381 390.957C281.441 390.367 280.691 389.554 280.133 388.517C279.591 387.465 279.32 386.277 279.32 384.954ZM290.107 385.001C290.107 384.093 289.916 383.303 289.533 382.634C289.166 381.964 288.68 381.454 288.074 381.103C287.468 380.752 286.814 380.577 286.113 380.577C285.411 380.577 284.757 380.752 284.151 381.103C283.545 381.438 283.051 381.94 282.668 382.61C282.302 383.263 282.118 384.045 282.118 384.954C282.118 385.862 282.302 386.66 282.668 387.345C283.051 388.031 283.545 388.557 284.151 388.924C284.773 389.275 285.427 389.45 286.113 389.45C286.814 389.45 287.468 389.275 288.074 388.924C288.68 388.573 289.166 388.063 289.533 387.393C289.916 386.708 290.107 385.91 290.107 385.001ZM299.62 380.648V387.943C299.62 388.438 299.732 388.796 299.955 389.02C300.194 389.227 300.593 389.331 301.151 389.331H302.825V391.603H300.672C299.445 391.603 298.504 391.316 297.85 390.742C297.196 390.168 296.869 389.235 296.869 387.943V380.648H295.315V378.424H296.869V375.147H299.62V378.424H302.825V380.648H299.62ZM310.122 391.818C309.085 391.818 308.152 391.635 307.323 391.268C306.51 390.885 305.864 390.375 305.386 389.737C304.908 389.083 304.652 388.358 304.621 387.561H307.443C307.491 388.119 307.754 388.589 308.232 388.972C308.726 389.339 309.34 389.522 310.074 389.522C310.839 389.522 311.429 389.378 311.844 389.091C312.274 388.788 312.49 388.406 312.49 387.943C312.49 387.449 312.25 387.082 311.772 386.843C311.31 386.604 310.568 386.341 309.548 386.054C308.559 385.783 307.754 385.52 307.132 385.265C306.51 385.009 305.968 384.619 305.505 384.093C305.059 383.566 304.836 382.873 304.836 382.012C304.836 381.31 305.043 380.672 305.458 380.098C305.872 379.508 306.462 379.046 307.228 378.711C308.009 378.376 308.902 378.209 309.906 378.209C311.405 378.209 312.609 378.591 313.518 379.357C314.443 380.106 314.937 381.135 315.001 382.442H312.274C312.226 381.852 311.987 381.382 311.557 381.031C311.126 380.68 310.544 380.505 309.811 380.505C309.093 380.505 308.543 380.64 308.16 380.911C307.778 381.183 307.586 381.541 307.586 381.988C307.586 382.339 307.714 382.634 307.969 382.873C308.224 383.112 308.535 383.303 308.902 383.447C309.269 383.574 309.811 383.742 310.528 383.949C311.485 384.204 312.266 384.467 312.872 384.738C313.494 384.993 314.028 385.376 314.475 385.886C314.921 386.397 315.152 387.074 315.168 387.919C315.168 388.669 314.961 389.339 314.546 389.929C314.132 390.519 313.542 390.981 312.777 391.316C312.027 391.651 311.142 391.818 310.122 391.818ZM319.502 376.678C319.007 376.678 318.593 376.511 318.258 376.176C317.923 375.841 317.756 375.426 317.756 374.932C317.756 374.438 317.923 374.023 318.258 373.688C318.593 373.353 319.007 373.186 319.502 373.186C319.98 373.186 320.387 373.353 320.722 373.688C321.056 374.023 321.224 374.438 321.224 374.932C321.224 375.426 321.056 375.841 320.722 376.176C320.387 376.511 319.98 376.678 319.502 376.678ZM320.841 378.424V391.603H318.115V378.424H320.841ZM329.731 378.209C330.751 378.209 331.652 378.416 332.434 378.831C333.231 379.229 333.853 379.732 334.299 380.337V378.424H337.05V391.818C337.05 393.03 336.795 394.106 336.284 395.047C335.774 396.004 335.033 396.753 334.06 397.295C333.103 397.837 331.955 398.109 330.616 398.109C328.83 398.109 327.347 397.686 326.167 396.841C324.987 396.012 324.317 394.88 324.158 393.444H326.861C327.068 394.13 327.506 394.68 328.176 395.095C328.862 395.525 329.675 395.741 330.616 395.741C331.716 395.741 332.601 395.406 333.271 394.736C333.956 394.066 334.299 393.094 334.299 391.818V389.618C333.837 390.239 333.207 390.766 332.41 391.196C331.628 391.611 330.735 391.818 329.731 391.818C328.583 391.818 327.53 391.531 326.574 390.957C325.633 390.367 324.883 389.554 324.325 388.517C323.783 387.465 323.512 386.277 323.512 384.954C323.512 383.63 323.783 382.458 324.325 381.438C324.883 380.417 325.633 379.628 326.574 379.07C327.53 378.496 328.583 378.209 329.731 378.209ZM334.299 385.001C334.299 384.093 334.108 383.303 333.725 382.634C333.358 381.964 332.872 381.454 332.266 381.103C331.66 380.752 331.006 380.577 330.305 380.577C329.603 380.577 328.95 380.752 328.344 381.103C327.738 381.438 327.243 381.94 326.861 382.61C326.494 383.263 326.311 384.045 326.311 384.954C326.311 385.862 326.494 386.66 326.861 387.345C327.243 388.031 327.738 388.557 328.344 388.924C328.965 389.275 329.619 389.45 330.305 389.45C331.006 389.45 331.66 389.275 332.266 388.924C332.872 388.573 333.358 388.063 333.725 387.393C334.108 386.708 334.299 385.91 334.299 385.001ZM347.28 378.209C348.317 378.209 349.242 378.424 350.055 378.855C350.884 379.285 351.53 379.923 351.992 380.768C352.455 381.613 352.686 382.634 352.686 383.829V391.603H349.983V384.236C349.983 383.056 349.688 382.155 349.098 381.533C348.508 380.896 347.703 380.577 346.682 380.577C345.662 380.577 344.849 380.896 344.243 381.533C343.653 382.155 343.358 383.056 343.358 384.236V391.603H340.631V378.424H343.358V379.931C343.804 379.389 344.37 378.966 345.056 378.663C345.758 378.36 346.499 378.209 347.28 378.209ZM370.73 392.56V395.095H357.384V392.56H370.73ZM374.338 385.001C374.338 383.646 374.609 382.458 375.151 381.438C375.709 380.401 376.475 379.604 377.447 379.046C378.42 378.488 379.536 378.209 380.796 378.209C382.39 378.209 383.706 378.591 384.742 379.357C385.795 380.106 386.504 381.183 386.871 382.586H383.929C383.69 381.932 383.307 381.422 382.781 381.055C382.255 380.688 381.593 380.505 380.796 380.505C379.68 380.505 378.787 380.904 378.117 381.701C377.463 382.482 377.136 383.582 377.136 385.001C377.136 386.421 377.463 387.529 378.117 388.326C378.787 389.123 379.68 389.522 380.796 389.522C382.374 389.522 383.419 388.828 383.929 387.441H386.871C386.488 388.78 385.771 389.849 384.718 390.646C383.666 391.427 382.358 391.818 380.796 391.818C379.536 391.818 378.42 391.539 377.447 390.981C376.475 390.407 375.709 389.61 375.151 388.589C374.609 387.553 374.338 386.357 374.338 385.001ZM392.315 373.904V391.603H389.588V373.904H392.315ZM397.282 376.678C396.788 376.678 396.373 376.511 396.038 376.176C395.703 375.841 395.536 375.426 395.536 374.932C395.536 374.438 395.703 374.023 396.038 373.688C396.373 373.353 396.788 373.186 397.282 373.186C397.76 373.186 398.167 373.353 398.502 373.688C398.837 374.023 399.004 374.438 399.004 374.932C399.004 375.426 398.837 375.841 398.502 376.176C398.167 376.511 397.76 376.678 397.282 376.678ZM398.621 378.424V391.603H395.895V378.424H398.621ZM414.28 384.691C414.28 385.185 414.248 385.631 414.184 386.03H404.115C404.194 387.082 404.585 387.927 405.287 388.565C405.988 389.203 406.849 389.522 407.87 389.522C409.337 389.522 410.373 388.908 410.979 387.68H413.921C413.522 388.892 412.797 389.889 411.744 390.67C410.708 391.435 409.416 391.818 407.87 391.818C406.61 391.818 405.478 391.539 404.473 390.981C403.485 390.407 402.703 389.61 402.129 388.589C401.571 387.553 401.292 386.357 401.292 385.001C401.292 383.646 401.563 382.458 402.106 381.438C402.664 380.401 403.437 379.604 404.426 379.046C405.43 378.488 406.578 378.209 407.87 378.209C409.113 378.209 410.222 378.48 411.194 379.022C412.167 379.564 412.924 380.329 413.467 381.318C414.009 382.291 414.28 383.415 414.28 384.691ZM411.434 383.829C411.418 382.825 411.059 382.02 410.357 381.414C409.656 380.808 408.787 380.505 407.75 380.505C406.809 380.505 406.004 380.808 405.334 381.414C404.665 382.004 404.266 382.809 404.139 383.829H411.434ZM423.612 378.209C424.649 378.209 425.574 378.424 426.387 378.855C427.216 379.285 427.862 379.923 428.324 380.768C428.787 381.613 429.018 382.634 429.018 383.829V391.603H426.315V384.236C426.315 383.056 426.02 382.155 425.43 381.533C424.84 380.896 424.035 380.577 423.014 380.577C421.994 380.577 421.181 380.896 420.575 381.533C419.985 382.155 419.69 383.056 419.69 384.236V391.603H416.963V378.424H419.69V379.931C420.136 379.389 420.702 378.966 421.388 378.663C422.09 378.36 422.831 378.209 423.612 378.209ZM435.677 380.648V387.943C435.677 388.438 435.788 388.796 436.012 389.02C436.251 389.227 436.65 389.331 437.208 389.331H438.882V391.603H436.729C435.501 391.603 434.561 391.316 433.907 390.742C433.253 390.168 432.926 389.235 432.926 387.943V380.648H431.372V378.424H432.926V375.147H435.677V378.424H438.882V380.648H435.677Z" fill="#252525"/>
<path d="M505.335 189.345V211.048H500.982V196.932L495.168 211.048H491.872L486.026 196.932V211.048H481.673V189.345H486.617L493.52 205.483L500.423 189.345H505.335ZM526.119 193.823L515.453 219.195H510.821L514.552 210.613L507.649 193.823H512.531L516.977 205.856L521.486 193.823H526.119ZM554.437 211.048H550.084L540.227 196.155V211.048H535.874V189.314H540.227L550.084 204.239V189.314H554.437V211.048ZM566.388 211.328C564.729 211.328 563.237 210.966 561.91 210.24C560.584 209.494 559.537 208.447 558.77 207.1C558.023 205.752 557.65 204.198 557.65 202.436C557.65 200.674 558.034 199.119 558.801 197.772C559.589 196.424 560.656 195.388 562.003 194.662C563.351 193.916 564.854 193.543 566.512 193.543C568.17 193.543 569.673 193.916 571.021 194.662C572.368 195.388 573.425 196.424 574.192 197.772C574.98 199.119 575.374 200.674 575.374 202.436C575.374 204.198 574.969 205.752 574.161 207.1C573.373 208.447 572.295 209.494 570.927 210.24C569.58 210.966 568.067 211.328 566.388 211.328ZM566.388 207.535C567.175 207.535 567.911 207.348 568.595 206.975C569.3 206.581 569.86 206.001 570.274 205.234C570.689 204.467 570.896 203.534 570.896 202.436C570.896 200.798 570.461 199.544 569.59 198.673C568.74 197.782 567.694 197.336 566.45 197.336C565.206 197.336 564.159 197.782 563.309 198.673C562.48 199.544 562.066 200.798 562.066 202.436C562.066 204.073 562.47 205.338 563.278 206.229C564.107 207.1 565.144 207.535 566.388 207.535ZM582.92 196.31C583.479 195.523 584.246 194.87 585.221 194.351C586.216 193.812 587.345 193.543 588.61 193.543C590.082 193.543 591.408 193.906 592.59 194.631C593.792 195.357 594.735 196.393 595.419 197.741C596.124 199.067 596.477 200.611 596.477 202.373C596.477 204.135 596.124 205.7 595.419 207.069C594.735 208.416 593.792 209.463 592.59 210.209C591.408 210.955 590.082 211.328 588.61 211.328C587.345 211.328 586.226 211.069 585.252 210.551C584.298 210.033 583.521 209.38 582.92 208.592V219.257H578.567V193.823H582.92V196.31ZM592.03 202.373C592.03 201.337 591.813 200.446 591.377 199.699C590.963 198.932 590.403 198.352 589.698 197.958C589.014 197.564 588.268 197.367 587.459 197.367C586.672 197.367 585.925 197.575 585.221 197.989C584.537 198.383 583.977 198.964 583.542 199.731C583.127 200.497 582.92 201.399 582.92 202.436C582.92 203.472 583.127 204.374 583.542 205.141C583.977 205.908 584.537 206.498 585.221 206.913C585.925 207.307 586.672 207.504 587.459 207.504C588.268 207.504 589.014 207.297 589.698 206.882C590.403 206.467 590.963 205.877 591.377 205.11C591.813 204.343 592.03 203.431 592.03 202.373ZM607.289 211.328C605.63 211.328 604.138 210.966 602.811 210.24C601.485 209.494 600.438 208.447 599.671 207.1C598.925 205.752 598.552 204.198 598.552 202.436C598.552 200.674 598.935 199.119 599.702 197.772C600.49 196.424 601.557 195.388 602.905 194.662C604.252 193.916 605.755 193.543 607.413 193.543C609.071 193.543 610.574 193.916 611.922 194.662C613.269 195.388 614.326 196.424 615.093 197.772C615.881 199.119 616.275 200.674 616.275 202.436C616.275 204.198 615.871 205.752 615.062 207.1C614.274 208.447 613.196 209.494 611.828 210.24C610.481 210.966 608.968 211.328 607.289 211.328ZM607.289 207.535C608.076 207.535 608.812 207.348 609.496 206.975C610.201 206.581 610.761 206.001 611.175 205.234C611.59 204.467 611.797 203.534 611.797 202.436C611.797 200.798 611.362 199.544 610.491 198.673C609.641 197.782 608.595 197.336 607.351 197.336C606.107 197.336 605.06 197.782 604.211 198.673C603.381 199.544 602.967 200.798 602.967 202.436C602.967 204.073 603.371 205.338 604.179 206.229C605.009 207.1 606.045 207.535 607.289 207.535ZM623.821 196.497C624.381 195.585 625.106 194.87 625.997 194.351C626.91 193.833 627.946 193.574 629.107 193.574V198.145H627.956C626.588 198.145 625.552 198.466 624.847 199.109C624.163 199.751 623.821 200.871 623.821 202.467V211.048H619.468V193.823H623.821V196.497ZM637.107 197.398V205.732C637.107 206.312 637.242 206.737 637.511 207.006C637.801 207.255 638.278 207.379 638.942 207.379H640.963V211.048H638.226C634.557 211.048 632.723 209.266 632.723 205.7V197.398H630.671V193.823H632.723V189.563H637.107V193.823H640.963V197.398H637.107ZM650.685 211.328C649.276 211.328 648.011 211.08 646.892 210.582C645.773 210.064 644.881 209.369 644.218 208.499C643.575 207.628 643.223 206.664 643.161 205.607H647.545C647.628 206.27 647.949 206.82 648.509 207.255C649.089 207.69 649.804 207.908 650.654 207.908C651.483 207.908 652.126 207.742 652.582 207.411C653.059 207.079 653.297 206.654 653.297 206.136C653.297 205.576 653.007 205.161 652.427 204.892C651.867 204.602 650.965 204.291 649.721 203.959C648.436 203.648 647.379 203.327 646.55 202.995C645.742 202.664 645.037 202.156 644.436 201.472C643.855 200.788 643.565 199.865 643.565 198.704C643.565 197.751 643.834 196.88 644.373 196.093C644.933 195.305 645.721 194.683 646.737 194.227C647.773 193.771 648.986 193.543 650.374 193.543C652.427 193.543 654.064 194.061 655.287 195.098C656.51 196.113 657.184 197.492 657.308 199.233H653.142C653.08 198.549 652.789 198.01 652.271 197.616C651.774 197.202 651.1 196.994 650.25 196.994C649.462 196.994 648.851 197.139 648.416 197.43C648.001 197.72 647.794 198.124 647.794 198.642C647.794 199.223 648.084 199.668 648.664 199.979C649.245 200.269 650.146 200.57 651.369 200.881C652.613 201.192 653.639 201.513 654.448 201.845C655.256 202.177 655.951 202.695 656.531 203.4C657.132 204.084 657.443 204.996 657.464 206.136C657.464 207.131 657.184 208.022 656.624 208.81C656.085 209.597 655.298 210.219 654.261 210.675C653.245 211.111 652.053 211.328 650.685 211.328Z" fill="black"/>
<rect x="582.053" y="260.977" width="246.355" height="40.6606" rx="11.959" fill="#EFEFEF"/>
<path d="M309.389 302.235H525.344" stroke="#F05E3E" stroke-width="3" stroke-linecap="round"/>
<path d="M354.953 256.865V277.02H350.91V263.911L345.51 277.02H342.449L337.02 263.911V277.02H332.978V256.865H337.569L343.98 271.852L350.39 256.865H354.953ZM374.254 261.023L364.349 284.586H360.047L363.512 276.616L357.101 261.023H361.635L365.764 272.198L369.951 261.023H374.254ZM400.553 277.02H396.51L387.356 263.189V277.02H383.314V256.836H387.356L396.51 270.697V256.836H400.553V277.02ZM411.652 277.28C410.111 277.28 408.725 276.943 407.493 276.27C406.261 275.577 405.289 274.604 404.577 273.353C403.884 272.102 403.537 270.658 403.537 269.022C403.537 267.385 403.893 265.942 404.606 264.69C405.337 263.439 406.329 262.476 407.58 261.803C408.831 261.11 410.227 260.763 411.767 260.763C413.307 260.763 414.703 261.11 415.954 261.803C417.205 262.476 418.187 263.439 418.9 264.69C419.631 265.942 419.997 267.385 419.997 269.022C419.997 270.658 419.621 272.102 418.871 273.353C418.139 274.604 417.138 275.577 415.867 276.27C414.616 276.943 413.211 277.28 411.652 277.28ZM411.652 273.757C412.383 273.757 413.066 273.584 413.702 273.238C414.356 272.872 414.876 272.333 415.261 271.621C415.646 270.908 415.839 270.042 415.839 269.022C415.839 267.501 415.434 266.336 414.626 265.528C413.837 264.7 412.864 264.286 411.709 264.286C410.554 264.286 409.582 264.7 408.793 265.528C408.023 266.336 407.638 267.501 407.638 269.022C407.638 270.543 408.013 271.717 408.764 272.545C409.534 273.353 410.497 273.757 411.652 273.757ZM427.005 263.333C427.525 262.602 428.237 261.995 429.142 261.514C430.066 261.013 431.115 260.763 432.289 260.763C433.656 260.763 434.888 261.1 435.985 261.774C437.102 262.448 437.978 263.41 438.613 264.661C439.268 265.893 439.595 267.328 439.595 268.964C439.595 270.6 439.268 272.054 438.613 273.324C437.978 274.576 437.102 275.548 435.985 276.241C434.888 276.934 433.656 277.28 432.289 277.28C431.115 277.28 430.075 277.04 429.171 276.558C428.285 276.077 427.563 275.471 427.005 274.739V284.644H422.962V261.023H427.005V263.333ZM435.466 268.964C435.466 268.001 435.264 267.174 434.859 266.481C434.474 265.768 433.954 265.229 433.3 264.863C432.665 264.498 431.972 264.315 431.221 264.315C430.489 264.315 429.796 264.507 429.142 264.892C428.507 265.258 427.987 265.797 427.582 266.509C427.197 267.222 427.005 268.059 427.005 269.022C427.005 269.984 427.197 270.822 427.582 271.534C427.987 272.246 428.507 272.795 429.142 273.18C429.796 273.546 430.489 273.729 431.221 273.729C431.972 273.729 432.665 273.536 433.3 273.151C433.954 272.766 434.474 272.217 434.859 271.505C435.264 270.793 435.466 269.946 435.466 268.964ZM449.636 277.28C448.096 277.28 446.71 276.943 445.478 276.27C444.246 275.577 443.274 274.604 442.562 273.353C441.869 272.102 441.522 270.658 441.522 269.022C441.522 267.385 441.878 265.942 442.59 264.69C443.322 263.439 444.313 262.476 445.565 261.803C446.816 261.11 448.212 260.763 449.752 260.763C451.292 260.763 452.688 261.11 453.939 261.803C455.19 262.476 456.172 263.439 456.884 264.69C457.616 265.942 457.982 267.385 457.982 269.022C457.982 270.658 457.606 272.102 456.855 273.353C456.124 274.604 455.123 275.577 453.852 276.27C452.601 276.943 451.196 277.28 449.636 277.28ZM449.636 273.757C450.368 273.757 451.051 273.584 451.686 273.238C452.341 272.872 452.861 272.333 453.246 271.621C453.631 270.908 453.823 270.042 453.823 269.022C453.823 267.501 453.419 266.336 452.611 265.528C451.821 264.7 450.849 264.286 449.694 264.286C448.539 264.286 447.567 264.7 446.778 265.528C446.007 266.336 445.622 267.501 445.622 269.022C445.622 270.543 445.998 271.717 446.749 272.545C447.519 273.353 448.481 273.757 449.636 273.757ZM464.99 263.506C465.509 262.659 466.183 261.995 467.011 261.514C467.858 261.033 468.821 260.792 469.899 260.792V265.037H468.83C467.56 265.037 466.597 265.335 465.943 265.932C465.307 266.529 464.99 267.568 464.99 269.051V277.02H460.947V261.023H464.99V263.506ZM477.328 264.344V272.083C477.328 272.622 477.454 273.016 477.704 273.266C477.973 273.498 478.416 273.613 479.032 273.613H480.909V277.02H478.368C474.961 277.02 473.257 275.365 473.257 272.054V264.344H471.351V261.023H473.257V257.067H477.328V261.023H480.909V264.344H477.328ZM489.939 277.28C488.629 277.28 487.455 277.049 486.416 276.587C485.376 276.106 484.548 275.461 483.932 274.653C483.336 273.844 483.008 272.949 482.95 271.967H487.022C487.099 272.583 487.397 273.093 487.917 273.498C488.456 273.902 489.12 274.104 489.91 274.104C490.68 274.104 491.276 273.95 491.7 273.642C492.143 273.334 492.364 272.939 492.364 272.458C492.364 271.938 492.095 271.553 491.556 271.303C491.036 271.033 490.198 270.745 489.043 270.437C487.85 270.148 486.868 269.849 486.098 269.541C485.347 269.233 484.693 268.762 484.134 268.127C483.595 267.491 483.326 266.635 483.326 265.557C483.326 264.671 483.576 263.862 484.077 263.131C484.596 262.399 485.328 261.822 486.271 261.398C487.234 260.975 488.36 260.763 489.65 260.763C491.556 260.763 493.076 261.244 494.212 262.207C495.348 263.15 495.974 264.43 496.089 266.047H492.22C492.162 265.412 491.893 264.912 491.411 264.546C490.949 264.161 490.324 263.968 489.534 263.968C488.803 263.968 488.235 264.103 487.831 264.373C487.446 264.642 487.253 265.018 487.253 265.499C487.253 266.038 487.523 266.452 488.062 266.74C488.601 267.01 489.438 267.289 490.574 267.578C491.729 267.867 492.682 268.165 493.433 268.473C494.183 268.781 494.828 269.262 495.367 269.917C495.926 270.552 496.214 271.399 496.234 272.458C496.234 273.382 495.974 274.21 495.454 274.941C494.953 275.673 494.222 276.25 493.259 276.674C492.316 277.078 491.209 277.28 489.939 277.28Z" fill="#F05E3E"/>
<rect x="214.111" y="442.753" width="712.756" height="78.9293" rx="11.959" fill="#EFEFEF"/>
</g>
<g filter="url(#filter1_d_868_553)">
<rect x="316.194" y="45.0012" width="502.79" height="175.674" rx="30.2886" fill="white"/>
<g clip-path="url(#clip0_868_553)">
<path d="M442.375 115.031H381.625C380.227 115.031 379.094 116.165 379.094 117.562V153C379.094 154.398 380.227 155.531 381.625 155.531H442.375C443.773 155.531 444.906 154.398 444.906 153V117.562C444.906 116.165 443.773 115.031 442.375 115.031Z" stroke="#4D4D4D" stroke-width="5" stroke-linecap="round" stroke-linejoin="round"/>
<path d="M379.094 130.219H444.906" stroke="#4D4D4D" stroke-width="5" stroke-linecap="round" stroke-linejoin="round"/>
<path d="M394.281 125.156V135.281" stroke="#4D4D4D" stroke-width="5" stroke-linecap="round" stroke-linejoin="round"/>
<path d="M429.719 125.156V135.281" stroke="#4D4D4D" stroke-width="5" stroke-linecap="round" stroke-linejoin="round"/>
<path d="M424.656 115.031V109.969C424.656 108.626 424.123 107.338 423.173 106.389C422.224 105.44 420.936 104.906 419.594 104.906H404.406C403.064 104.906 401.776 105.44 400.827 106.389C399.877 107.338 399.344 108.626 399.344 109.969V115.031" stroke="#4D4D4D" stroke-width="5" stroke-linecap="round" stroke-linejoin="round"/>
</g>
<path d="M521.603 114.853V150.25H516.949V123.855L505.184 150.25H501.91L490.094 123.804V150.25H485.439V114.853H490.452L503.547 144.112L516.642 114.853H521.603ZM553.641 122.219L536.761 163.447H531.953L537.477 149.943L526.173 122.219H531.339L540.137 144.93L548.833 122.219H553.641ZM599.989 150.25H595.335L576.613 121.86V150.25H571.958V114.546H576.613L595.335 142.884V114.546H599.989V150.25ZM620.15 150.71C617.524 150.71 615.137 150.114 612.989 148.92C610.874 147.726 609.203 146.038 607.976 143.856C606.782 141.639 606.185 139.082 606.185 136.183C606.185 133.319 606.799 130.795 608.027 128.613C609.289 126.396 610.994 124.708 613.142 123.549C615.29 122.355 617.695 121.758 620.354 121.758C623.014 121.758 625.419 122.355 627.567 123.549C629.715 124.708 631.403 126.379 632.631 128.561C633.893 130.744 634.524 133.284 634.524 136.183C634.524 139.082 633.876 141.639 632.58 143.856C631.318 146.038 629.596 147.726 627.413 148.92C625.231 150.114 622.81 150.71 620.15 150.71ZM620.15 146.618C621.821 146.618 623.389 146.226 624.856 145.442C626.322 144.657 627.499 143.481 628.385 141.912C629.306 140.344 629.766 138.434 629.766 136.183C629.766 133.932 629.323 132.023 628.437 130.454C627.55 128.885 626.39 127.726 624.958 126.976C623.526 126.191 621.974 125.799 620.303 125.799C618.598 125.799 617.03 126.191 615.597 126.976C614.199 127.726 613.074 128.885 612.221 130.454C611.369 132.023 610.942 133.932 610.942 136.183C610.942 138.468 611.352 140.395 612.17 141.963C613.023 143.532 614.148 144.709 615.546 145.493C616.944 146.243 618.479 146.618 620.15 146.618ZM664.481 125.032C664.481 127.999 663.458 130.471 661.412 132.449C659.4 134.393 656.314 135.365 652.153 135.365H645.299V150.25H640.644V114.597H652.153C656.177 114.597 659.229 115.569 661.309 117.513C663.424 119.456 664.481 121.963 664.481 125.032ZM652.153 131.528C654.745 131.528 656.655 130.966 657.882 129.84C659.11 128.715 659.724 127.112 659.724 125.032C659.724 120.633 657.2 118.433 652.153 118.433H645.299V131.528H652.153ZM682.492 150.71C679.866 150.71 677.479 150.114 675.33 148.92C673.216 147.726 671.545 146.038 670.317 143.856C669.124 141.639 668.527 139.082 668.527 136.183C668.527 133.319 669.141 130.795 670.369 128.613C671.63 126.396 673.335 124.708 675.484 123.549C677.632 122.355 680.036 121.758 682.696 121.758C685.356 121.758 687.76 122.355 689.909 123.549C692.057 124.708 693.745 126.379 694.973 128.561C696.235 130.744 696.865 133.284 696.865 136.183C696.865 139.082 696.218 141.639 694.922 143.856C693.66 146.038 691.938 147.726 689.755 148.92C687.573 150.114 685.152 150.71 682.492 150.71ZM682.492 146.618C684.163 146.618 685.731 146.226 687.198 145.442C688.664 144.657 689.841 143.481 690.727 141.912C691.648 140.344 692.108 138.434 692.108 136.183C692.108 133.932 691.665 132.023 690.778 130.454C689.892 128.885 688.732 127.726 687.3 126.976C685.868 126.191 684.316 125.799 682.645 125.799C680.94 125.799 679.371 126.191 677.939 126.976C676.541 127.726 675.416 128.885 674.563 130.454C673.711 132.023 673.284 133.932 673.284 136.183C673.284 138.468 673.694 140.395 674.512 141.963C675.364 143.532 676.49 144.709 677.888 145.493C679.286 146.243 680.821 146.618 682.492 146.618ZM707.641 126.771C708.459 125.168 709.619 123.924 711.119 123.037C712.654 122.15 714.512 121.707 716.695 121.707V126.515H715.467C710.249 126.515 707.641 129.346 707.641 135.007V150.25H702.986V122.219H707.641V126.771ZM727.746 126.055V142.577C727.746 143.941 728.036 144.913 728.615 145.493C729.195 146.038 730.201 146.311 731.633 146.311H735.061V150.25H730.866C728.274 150.25 726.331 149.653 725.035 148.46C723.739 147.266 723.091 145.305 723.091 142.577V126.055H719.459V122.219H723.091V115.16H727.746V122.219H735.061V126.055H727.746ZM750.624 150.71C748.476 150.71 746.549 150.352 744.844 149.636C743.139 148.886 741.792 147.863 740.803 146.567C739.814 145.237 739.268 143.72 739.166 142.014H743.974C744.111 143.413 744.759 144.555 745.918 145.442C747.112 146.328 748.663 146.772 750.573 146.772C752.346 146.772 753.744 146.379 754.767 145.595C755.791 144.811 756.302 143.822 756.302 142.628C756.302 141.401 755.756 140.497 754.665 139.917C753.574 139.303 751.886 138.707 749.601 138.127C747.521 137.581 745.816 137.036 744.486 136.49C743.19 135.91 742.065 135.075 741.11 133.984C740.189 132.858 739.729 131.392 739.729 129.584C739.729 128.152 740.155 126.839 741.007 125.646C741.86 124.452 743.071 123.514 744.639 122.832C746.208 122.116 747.998 121.758 750.01 121.758C753.114 121.758 755.62 122.543 757.53 124.111C759.439 125.68 760.462 127.828 760.599 130.556H755.944C755.842 129.09 755.245 127.914 754.154 127.027C753.096 126.14 751.664 125.697 749.857 125.697C748.186 125.697 746.856 126.055 745.867 126.771C744.878 127.487 744.384 128.425 744.384 129.584C744.384 130.505 744.673 131.273 745.253 131.886C745.867 132.466 746.617 132.943 747.504 133.319C748.425 133.66 749.686 134.052 751.289 134.495C753.301 135.041 754.938 135.586 756.2 136.132C757.461 136.643 758.536 137.428 759.422 138.485C760.343 139.542 760.82 140.923 760.855 142.628C760.855 144.163 760.428 145.544 759.576 146.772C758.723 147.999 757.513 148.971 755.944 149.687C754.409 150.369 752.636 150.71 750.624 150.71Z" fill="#4D4D4D"/>
</g>
<defs>
<filter id="filter0_d_868_553" x="0.740692" y="64.0627" width="1134.52" height="630.908" filterUnits="userSpaceOnUse" color-interpolation-filters="sRGB">
<feFlood flood-opacity="0" result="BackgroundImageFix"/>
<feColorMatrix in="SourceAlpha" type="matrix" values="0 0 0 0 0 0 0 0 0 0 0 0 0 0 0 0 0 0 127 0" result="hardAlpha"/>
<feOffset dy="21.4609"/>
<feGaussianBlur stdDeviation="38.6297"/>
<feComposite in2="hardAlpha" operator="out"/>
<feColorMatrix type="matrix" values="0 0 0 0 0 0 0 0 0 0 0 0 0 0 0 0 0 0 0.25 0"/>
<feBlend mode="normal" in2="BackgroundImageFix" result="effect1_dropShadow_868_553"/>
<feBlend mode="normal" in="SourceGraphic" in2="effect1_dropShadow_868_553" result="shape"/>
</filter>
<filter id="filter1_d_868_553" x="247.136" y="0.172913" width="640.906" height="313.791" filterUnits="userSpaceOnUse" color-interpolation-filters="sRGB">
<feFlood flood-opacity="0" result="BackgroundImageFix"/>
<feColorMatrix in="SourceAlpha" type="matrix" values="0 0 0 0 0 0 0 0 0 0 0 0 0 0 0 0 0 0 127 0" result="hardAlpha"/>
<feOffset dy="24.2309"/>
<feGaussianBlur stdDeviation="34.529"/>
<feComposite in2="hardAlpha" operator="out"/>
<feColorMatrix type="matrix" values="0 0 0 0 0 0 0 0 0 0 0 0 0 0 0 0 0 0 0.25 0"/>
<feBlend mode="normal" in2="BackgroundImageFix" result="effect1_dropShadow_868_553"/>
<feBlend mode="normal" in="SourceGraphic" in2="effect1_dropShadow_868_553" result="shape"/>
</filter>
<clipPath id="clip0_868_553">
<rect width="81" height="81" fill="white" transform="translate(371.5 92.25)"/>
</clipPath>
</defs>
</svg>
