<svg width="144" height="70" viewBox="0 0 144 70" fill="none" xmlns="http://www.w3.org/2000/svg">
<rect width="144" height="70" rx="3.51448" fill="white"/>
<rect x="20.5" y="33.5361" width="103.731" height="10.5978" rx="1.25724" fill="#EFEFEF" stroke="#F05E3E"/>
<rect x="74.0649" y="20.7354" width="36.1991" height="5.97461" rx="1.75724" fill="#EFEFEF"/>
<path d="M34 26.7979H65.7322" stroke="#F05E3E" stroke-width="0.679975" stroke-linecap="round"/>
<path d="M40.6951 20.0169V22.9785H40.101V21.0522L39.3076 22.9785H38.8578L38.0601 21.0522V22.9785H37.4661V20.0169H38.1408L39.0827 22.219L40.0247 20.0169H40.6951ZM43.5312 20.6279L42.0758 24.0902H41.4436L41.9528 22.9191L41.0108 20.6279H41.677L42.2837 22.2699L42.899 20.6279H43.5312ZM47.3955 22.9785H46.8015L45.4565 20.9461V22.9785H44.8624V20.0126H45.4565L46.8015 22.0493V20.0126H47.3955V22.9785ZM49.0264 23.0167C48.8001 23.0167 48.5964 22.9672 48.4154 22.8682C48.2343 22.7664 48.0915 22.6235 47.9868 22.4396C47.885 22.2558 47.8341 22.0436 47.8341 21.8032C47.8341 21.5628 47.8864 21.3506 47.9911 21.1667C48.0985 20.9829 48.2442 20.8414 48.4281 20.7424C48.612 20.6406 48.817 20.5897 49.0433 20.5897C49.2696 20.5897 49.4747 20.6406 49.6586 20.7424C49.8424 20.8414 49.9867 20.9829 50.0914 21.1667C50.1989 21.3506 50.2526 21.5628 50.2526 21.8032C50.2526 22.0436 50.1974 22.2558 50.0871 22.4396C49.9796 22.6235 49.8325 22.7664 49.6458 22.8682C49.462 22.9672 49.2555 23.0167 49.0264 23.0167ZM49.0264 22.4991C49.1338 22.4991 49.2343 22.4736 49.3276 22.4227C49.4238 22.3689 49.5002 22.2897 49.5567 22.1851C49.6133 22.0804 49.6416 21.9531 49.6416 21.8032C49.6416 21.5797 49.5822 21.4086 49.4634 21.2898C49.3474 21.1681 49.2046 21.1073 49.0348 21.1073C48.8651 21.1073 48.7223 21.1681 48.6063 21.2898C48.4931 21.4086 48.4366 21.5797 48.4366 21.8032C48.4366 22.0267 48.4917 22.1992 48.6021 22.3208C48.7152 22.4396 48.8566 22.4991 49.0264 22.4991ZM51.2824 20.9673C51.3587 20.8598 51.4634 20.7707 51.5963 20.7C51.7321 20.6265 51.8863 20.5897 52.0588 20.5897C52.2597 20.5897 52.4407 20.6392 52.602 20.7382C52.766 20.8372 52.8947 20.9786 52.9881 21.1625C53.0842 21.3435 53.1323 21.5543 53.1323 21.7947C53.1323 22.0351 53.0842 22.2487 52.9881 22.4354C52.8947 22.6193 52.766 22.7621 52.602 22.864C52.4407 22.9658 52.2597 23.0167 52.0588 23.0167C51.8863 23.0167 51.7335 22.9813 51.6006 22.9106C51.4705 22.8399 51.3644 22.7508 51.2824 22.6433V24.0987H50.6883V20.6279H51.2824V20.9673ZM52.5256 21.7947C52.5256 21.6533 52.4959 21.5316 52.4365 21.4298C52.3799 21.3251 52.3035 21.2459 52.2073 21.1922C52.114 21.1384 52.0122 21.1116 51.9018 21.1116C51.7944 21.1116 51.6925 21.1399 51.5963 21.1964C51.503 21.2502 51.4266 21.3294 51.3672 21.434C51.3107 21.5387 51.2824 21.6618 51.2824 21.8032C51.2824 21.9446 51.3107 22.0677 51.3672 22.1723C51.4266 22.277 51.503 22.3576 51.5963 22.4142C51.6925 22.4679 51.7944 22.4948 51.9018 22.4948C52.0122 22.4948 52.114 22.4665 52.2073 22.4099C52.3035 22.3534 52.3799 22.2728 52.4365 22.1681C52.4959 22.0634 52.5256 21.939 52.5256 21.7947ZM54.6078 23.0167C54.3815 23.0167 54.1778 22.9672 53.9968 22.8682C53.8157 22.7664 53.6729 22.6235 53.5682 22.4396C53.4664 22.2558 53.4155 22.0436 53.4155 21.8032C53.4155 21.5628 53.4678 21.3506 53.5725 21.1667C53.68 20.9829 53.8256 20.8414 54.0095 20.7424C54.1934 20.6406 54.3985 20.5897 54.6248 20.5897C54.8511 20.5897 55.0561 20.6406 55.24 20.7424C55.4239 20.8414 55.5681 20.9829 55.6728 21.1667C55.7803 21.3506 55.834 21.5628 55.834 21.8032C55.834 22.0436 55.7789 22.2558 55.6685 22.4396C55.5611 22.6235 55.414 22.7664 55.2273 22.8682C55.0434 22.9672 54.8369 23.0167 54.6078 23.0167ZM54.6078 22.4991C54.7153 22.4991 54.8157 22.4736 54.909 22.4227C55.0052 22.3689 55.0816 22.2897 55.1382 22.1851C55.1947 22.0804 55.223 21.9531 55.223 21.8032C55.223 21.5797 55.1636 21.4086 55.0448 21.2898C54.9288 21.1681 54.786 21.1073 54.6163 21.1073C54.4465 21.1073 54.3037 21.1681 54.1877 21.2898C54.0746 21.4086 54.018 21.5797 54.018 21.8032C54.018 22.0267 54.0732 22.1992 54.1835 22.3208C54.2966 22.4396 54.4381 22.4991 54.6078 22.4991ZM56.8638 20.9928C56.9402 20.8683 57.0392 20.7707 57.1608 20.7C57.2853 20.6293 57.4267 20.5939 57.5851 20.5939V21.2177H57.4281C57.2414 21.2177 57.1 21.2615 57.0038 21.3492C56.9105 21.4369 56.8638 21.5896 56.8638 21.8074V22.9785H56.2698V20.6279H56.8638V20.9928ZM58.6768 21.1158V22.253C58.6768 22.3322 58.6952 22.3901 58.732 22.4269C58.7716 22.4609 58.8367 22.4778 58.9272 22.4778H59.203V22.9785H58.8296C58.3289 22.9785 58.0786 22.7352 58.0786 22.2487V21.1158H57.7985V20.6279H58.0786V20.0466H58.6768V20.6279H59.203V21.1158H58.6768ZM60.5298 23.0167C60.3374 23.0167 60.1648 22.9828 60.0121 22.9149C59.8594 22.8442 59.7377 22.7494 59.6472 22.6306C59.5595 22.5118 59.5114 22.3802 59.5029 22.236H60.1012C60.1125 22.3265 60.1564 22.4015 60.2327 22.4609C60.3119 22.5203 60.4095 22.55 60.5255 22.55C60.6387 22.55 60.7263 22.5273 60.7886 22.4821C60.8536 22.4368 60.8862 22.3788 60.8862 22.3081C60.8862 22.2317 60.8466 22.1752 60.7674 22.1384C60.691 22.0988 60.5679 22.0564 60.3982 22.0111C60.2228 21.9687 60.0786 21.9248 59.9654 21.8796C59.8551 21.8343 59.7589 21.765 59.6769 21.6717C59.5977 21.5783 59.5581 21.4524 59.5581 21.294C59.5581 21.1639 59.5949 21.0451 59.6684 20.9376C59.7448 20.8301 59.8523 20.7453 59.9909 20.683C60.1323 20.6208 60.2978 20.5897 60.4873 20.5897C60.7674 20.5897 60.9908 20.6604 61.1577 20.8018C61.3246 20.9404 61.4165 21.1285 61.4335 21.3662H60.865C60.8565 21.2728 60.8169 21.1993 60.7461 21.1455C60.6783 21.0889 60.5863 21.0607 60.4703 21.0607C60.3629 21.0607 60.2794 21.0805 60.22 21.1201C60.1634 21.1597 60.1351 21.2148 60.1351 21.2855C60.1351 21.3647 60.1748 21.4256 60.254 21.468C60.3332 21.5076 60.4562 21.5486 60.6231 21.591C60.7928 21.6335 60.9328 21.6773 61.0432 21.7226C61.1535 21.7678 61.2482 21.8386 61.3274 21.9347C61.4095 22.0281 61.4519 22.1525 61.4547 22.3081C61.4547 22.4439 61.4165 22.5655 61.3402 22.673C61.2666 22.7805 61.1591 22.8654 61.0177 22.9276C60.8791 22.987 60.7164 23.0167 60.5298 23.0167Z" fill="#F05E3E"/>
<rect x="20" y="47.4453" width="104.731" height="11.5978" rx="1.75724" fill="#EFEFEF"/>
</svg>
