<svg width="176" height="178" viewBox="0 0 176 178" fill="none" xmlns="http://www.w3.org/2000/svg">
<g clip-path="url(#clip0_691_2482)">
<rect width="176" height="178" rx="5" fill="white"/>
<g clip-path="url(#clip1_691_2482)">
<path d="M134 144.646C150.223 144.646 163.375 131.572 163.375 115.444C163.375 99.317 150.223 86.2432 134 86.2432C117.777 86.2432 104.625 99.317 104.625 115.444C104.625 131.572 117.777 144.646 134 144.646Z" stroke="#FFF1EE" stroke-opacity="0.75" stroke-width="10.1603" stroke-linecap="round" stroke-linejoin="round"/>
<path d="M175.125 173.847C163.955 181.227 148.416 185.527 134 185.527C120.056 185.527 106.426 181.417 94.8323 173.716C83.2387 166.015 74.2025 155.07 68.8665 142.264C63.5305 129.458 62.1344 115.366 64.8547 101.772C67.5749 88.177 74.2894 75.6894 84.149 65.8881C94.0086 56.0869 106.571 49.4121 120.246 46.708C133.922 44.0038 148.097 45.3917 160.979 50.6961C173.861 56.0005 184.872 64.9832 192.619 76.5083C200.365 88.0333 204.5 101.583 204.5 115.444C204.5 131.571 198.625 144.645 183.938 144.645C169.25 144.645 163.375 131.571 163.375 115.444V86.243" stroke="#FFF1EE" stroke-opacity="0.75" stroke-width="10.1603" stroke-linecap="round" stroke-linejoin="round"/>
</g>
</g>
<defs>
<clipPath id="clip0_691_2482">
<rect width="176" height="178" fill="white"/>
</clipPath>
<clipPath id="clip1_691_2482">
<rect width="188" height="186.888" fill="white" transform="translate(40 22)"/>
</clipPath>
</defs>
</svg>
